<svg width="1920" height="1076" viewBox="0 0 1920 1076" fill="none" xmlns="http://www.w3.org/2000/svg">
<g opacity="0.2">
<g clip-path="url(#clip0)">
<path d="M864.1 1023.4C857.1 1050 832.6 1066.6 832.6 1066.6C832.6 1066.6 819.4 1040.1 826.4 1013.5C833.4 986.9 857.9 970.3 857.9 970.3C857.9 970.3 871.1 996.8 864.1 1023.4Z" fill="#3F3D56"/>
<path d="M853.6 1017.8C834 1037.1 831.8 1066.6 831.8 1066.6C831.8 1066.6 861.3 1064.8 880.9 1045.4C900.5 1026 902.7 996.6 902.7 996.6C902.7 996.6 873.1 998.5 853.6 1017.8Z" fill="#F89F00"/>
<path d="M144.7 922.8H181.5L272.3 887.3C272.3 887.3 336.8 861 331.5 911C326.2 961 317 1028.1 317 1028.1C317 1028.1 288.1 1014.9 272.3 1018.9C256.5 1022.9 267 938.6 267 938.6C267 938.6 138.1 1000.4 126.2 992.5C114.3 984.6 111.7 929.3 111.7 929.3L144.7 922.8Z" fill="#2F2E41"/>
<path opacity="0.1" d="M144.7 922.8H181.5L272.3 887.3C272.3 887.3 336.8 861 331.5 911C326.2 961 317 1028.1 317 1028.1C317 1028.1 288.1 1014.9 272.3 1018.9C256.5 1022.9 267 938.6 267 938.6C267 938.6 138.1 1000.4 126.2 992.5C114.3 984.6 111.7 929.3 111.7 929.3L144.7 922.8Z" fill="black"/>
<path d="M202.8 807.4L247.4 871.5L351.3 958.3C351.3 958.3 447.4 980.7 434.2 996.5C421 1012.3 340.8 980.7 340.8 980.7C340.8 980.7 221 893.9 217.1 887.3C213.2 880.7 169.7 818.9 169.7 818.9L202.8 807.4Z" fill="#A0616A"/>
<path d="M202.8 807.4L247.4 871.5L351.3 958.3C351.3 958.3 447.4 980.7 434.2 996.5C421 1012.3 340.8 980.7 340.8 980.7C340.8 980.7 221 893.9 217.1 887.3C213.2 880.7 169.7 818.9 169.7 818.9L202.8 807.4Z" fill="#F3A5A4"/>
<path d="M176.3 755.7L205.2 812.3C205.2 812.3 198.6 839.9 188.1 842.6C177.6 845.3 132.8 808.4 132.8 808.4L176.3 755.7Z" fill="#D0CDE1"/>
<path opacity="0.1" d="M176.3 755.7L205.2 812.3C205.2 812.3 198.6 839.9 188.1 842.6C177.6 845.3 132.8 808.4 132.8 808.4L176.3 755.7Z" fill="black"/>
<path d="M529.5 893.5L538.1 928.8C538.2 929.2 538.2 929.6 538.1 930L499.3 1051.2C498.9 1052.4 497.7 1053 496.5 1052.6C495.7 1052.3 495.1 1051.6 495 1050.8L489.6 1003.6C489.6 1003.3 489.6 1003 489.7 1002.7L525.3 893.4C525.7 892.2 526.9 891.6 528.1 892C528.7 892.2 529.3 892.8 529.5 893.5Z" fill="#2F2E41"/>
<path d="M526.3 896.5L534.2 926.8L500 1037.3L492.1 1003.1L526.3 896.5Z" fill="#F2F2F2"/>
<path d="M353.9 1061C355.2 1064.9 490.7 1059.7 492.1 1058.4C493.2 1056.8 494.2 1055 495 1053.1C496.2 1050.5 497.4 1047.8 497.4 1047.8L492.1 1005.2L357.9 1000.4C357.9 1000.4 354.5 1036.5 353.9 1053C353.7 1057.2 353.7 1060.2 353.9 1061Z" fill="#2F2E41"/>
<path opacity="0.1" d="M475 1011L477.6 1047.8H418.4V1011H475Z" fill="black"/>
<path opacity="0.1" d="M398.7 1022.8L399 1022.7L397.4 1038.6H364.5V1022.8H398.7Z" fill="black"/>
<path opacity="0.1" d="M353.9 1061C355.2 1064.9 490.7 1059.7 492.1 1058.4C493.2 1056.8 494.2 1055 495 1053.1H353.8C353.7 1057.2 353.7 1060.2 353.9 1061Z" fill="black"/>
<path d="M196 737.3C228.695 737.3 255.2 710.795 255.2 678.1C255.2 645.405 228.695 618.9 196 618.9C163.305 618.9 136.8 645.405 136.8 678.1C136.8 710.795 163.305 737.3 196 737.3Z" fill="#FFB6B5"/>
<path d="M192.1 730.7C192.1 730.7 172.4 764.9 168.4 783.3C164.4 801.7 109.2 746.5 109.2 746.5L102 727.4C102 727.4 154 703.1 150 683.3C146 663.5 192.1 730.7 192.1 730.7Z" fill="#FFB6B5"/>
<path d="M202.6 833.3L256.5 904.4L385.4 1000.5C385.4 1000.5 478.8 1020.2 457.8 1034.7C436.8 1049.2 376.2 1021.5 376.2 1021.5C376.2 1021.5 246 951.8 218.4 922.8C190.8 893.8 139.5 845.2 139.5 845.2L202.6 833.3Z" fill="#FFB6B5"/>
<path d="M130.3 943.9L146.1 968.9L240.3 939.3C261 932.8 283.6 935.2 302 946.7C318.4 957.1 329 973.5 305.3 997.9C257.9 1046.6 226.4 1020.3 226.4 1020.3C226.4 1020.3 67.2 1095.3 40.9 1058.5C14.6 1021.7 13.3 1003.2 13.3 1003.2C13.3 1003.2 114.5 939.9 130.3 943.9Z" fill="#2F2E41"/>
<path d="M327.6 1030.7C327.6 1030.7 369.7 1058.3 319.7 1071.5C269.7 1084.7 232.9 1066.2 232.9 1066.2C232.9 1066.2 189.5 1066.2 189.5 1043.8C189.5 1021.4 204 1018.8 204 1018.8L248.7 1025.4C248.7 1025.4 302.6 1011 327.6 1030.7Z" fill="#D0CDE1"/>
<path d="M244.6 663.2C248.6 665 252.6 667.1 257 667.6C261.4 668.1 266.4 666.6 268.4 662.7C269.5 660.6 269.6 658.1 269.7 655.7C269.9 648.5 269.3 640.7 264.8 635.1C261.9 631.5 257.6 629.3 254.6 625.8C252.4 623.3 251 620.3 249.5 617.4C243.6 606.4 234.9 595.8 222.9 592.6C217.9 591.3 212.6 591.3 207.4 591.4L177 591.8C172.1 591.9 167.1 592 162.4 593.4C152.6 596.4 145.5 604.6 139 612.5C134.1 618.4 129.2 624.3 125.6 631C120.3 640.8 117.7 651.8 117.9 662.9C117.9 665.8 118.2 668.6 119 671.3C119.9 673.8 121 676.3 122.3 678.6C128 689.8 131.4 703.8 125 714.6C136.2 710 147.2 704.1 154.5 694.5C157.8 690.2 160.4 685.2 164.8 682.1C169.2 679 176.3 678.7 179.1 683.3C180.1 685.2 180.6 687.2 180.6 689.3C180.8 692.7 180.8 696.3 182.3 699.5C183.8 702.7 187.2 705.2 190.6 704.2C196.3 702.6 195.8 693.8 200.2 689.8C203.6 686.8 208.7 687.3 213 686C218 684.4 221.8 680.1 223.9 675.2C225.5 671.5 225.5 662 228.6 660C232.2 657.6 241 661.6 244.6 663.2Z" fill="#2F2E41"/>
<path d="M97.3 721.2C100 720.5 102.8 720.5 105.4 721.2C113.8 723.5 132.8 729.5 136.8 738.6C142.1 750.4 160.5 768.9 160.5 768.9C160.5 768.9 185.5 793.9 180.2 811C174.9 828.1 155.2 847.8 155.2 847.8C155.2 847.8 160.5 929.4 134.1 950.4C107.7 971.4 97.3 957 97.3 976.7C97.3 996.4 15.8 1058.3 0 1020.2C0 1020.2 7.9 949.1 5.3 924.1C2.7 899.5 6.5 745.8 97.3 721.2Z" fill="#D0CDE1"/>
<path d="M139.5 754.4C139.5 754.4 219.8 813.6 205.3 838.6C205.3 838.6 156.6 862.3 146.1 861C135.6 859.7 94.8 813.6 84.3 809.7C73.8 805.8 68.4 734.7 139.5 754.4Z" fill="#D0CDE1"/>
<path d="M498.1 623.5C533.999 623.5 563.1 594.399 563.1 558.5C563.1 522.601 533.999 493.5 498.1 493.5C462.201 493.5 433.1 522.601 433.1 558.5C433.1 594.399 462.201 623.5 498.1 623.5Z" fill="#F2F2F2"/>
<path d="M1034.9 474H670.7V397.8H1034.9V474ZM672.3 472.4H1033.3V399.4H672.3V472.4Z" fill="#3F3D56"/>
<path d="M1008.4 413.1H645.8V487.7H1008.4V413.1Z" fill="#F89F00"/>
<path d="M416.6 341.8C419.693 341.8 422.2 339.293 422.2 336.2C422.2 333.107 419.693 330.6 416.6 330.6C413.507 330.6 411 333.107 411 336.2C411 339.293 413.507 341.8 416.6 341.8Z" fill="#F89F00"/>
<path d="M435.8 341.8C438.893 341.8 441.4 339.293 441.4 336.2C441.4 333.107 438.893 330.6 435.8 330.6C432.707 330.6 430.2 333.107 430.2 336.2C430.2 339.293 432.707 341.8 435.8 341.8Z" fill="#F89F00"/>
<path d="M455.1 341.8C458.193 341.8 460.7 339.293 460.7 336.2C460.7 333.107 458.193 330.6 455.1 330.6C452.007 330.6 449.5 333.107 449.5 336.2C449.5 339.293 452.007 341.8 455.1 341.8Z" fill="#F89F00"/>
<path d="M1076.1 760.7H400.5V321H1076V760.7H1076.1ZM402.1 759.1H1074.4V322.6H402.1V759.1Z" fill="#3F3D56"/>
<path d="M1075.2 345.3H401.3V346.9H1075.2V345.3Z" fill="#3F3D56"/>
<path d="M418.2 340.3C414.7 340.3 411.8 337.4 411.8 333.9C411.8 330.4 414.7 327.5 418.2 327.5C421.7 327.5 424.6 330.4 424.6 333.9C424.6 337.4 421.7 340.3 418.2 340.3ZM418.2 329C415.5 329 413.4 331.2 413.4 333.8C413.4 336.4 415.6 338.6 418.2 338.6C420.9 338.6 423 336.4 423 333.8C423 331.2 420.8 329 418.2 329Z" fill="#3F3D56"/>
<path d="M437.4 340.3C433.9 340.3 431 337.4 431 333.9C431 330.4 433.9 327.5 437.4 327.5C440.9 327.5 443.8 330.4 443.8 333.9C443.8 337.4 441 340.3 437.4 340.3ZM437.4 329C434.7 329 432.6 331.2 432.6 333.8C432.6 336.4 434.8 338.6 437.4 338.6C440.1 338.6 442.2 336.4 442.2 333.8C442.2 331.2 440.1 329 437.4 329Z" fill="#3F3D56"/>
<path d="M456.7 340.3C453.2 340.3 450.3 337.4 450.3 333.9C450.3 330.4 453.2 327.5 456.7 327.5C460.2 327.5 463.1 330.4 463.1 333.9C463.1 337.4 460.2 340.3 456.7 340.3ZM456.7 329C454 329 451.9 331.2 451.9 333.8C451.9 336.5 454.1 338.6 456.7 338.6C459.4 338.6 461.5 336.4 461.5 333.8C461.5 331.2 459.3 329 456.7 329Z" fill="#3F3D56"/>
<path d="M613.7 346.1H612.1V760.4H613.7V346.1Z" fill="#3F3D56"/>
<path d="M806.6 549.9H688.7V565.9H806.6V549.9Z" fill="#F2F2F2"/>
<path d="M992 549.9H874.1V565.9H992V549.9Z" fill="#F2F2F2"/>
<path d="M813.9 558.7H694.3V541H813.8V558.7H813.9ZM696 557.1H812.3V542.7H696V557.1Z" fill="#3F3D56"/>
<path d="M806.6 674.2H688.7V690.2H806.6V674.2Z" fill="#F2F2F2"/>
<path d="M813.9 683H694.3V665.3H813.8V683H813.9ZM696 681.4H812.3V667H696V681.4Z" fill="#3F3D56"/>
<path d="M992.4 610.4H689.1V626.4H992.4V610.4Z" fill="#F2F2F2"/>
<path d="M999.6 620.9H694.8V603.2H999.7V620.9H999.6ZM696.4 619.3H998V604.9H696.4V619.3Z" fill="#3F3D56"/>
<path d="M999.2 558.7H879.7V541H999.2V558.7ZM881.3 557.1H997.6V542.7H881.3V557.1Z" fill="#3F3D56"/>
<path d="M509.1 606.5C472.6 606.5 443.1 577 443.1 540.5C443.1 504 472.6 474.5 509.1 474.5C545.6 474.5 575.1 504 575.1 540.5C575 576.9 545.5 606.4 509.1 606.5ZM509.1 476.5C473.8 476.5 445.1 505.2 445.1 540.5C445.1 575.8 473.8 604.5 509.1 604.5C544.4 604.5 573.1 575.8 573.1 540.5C573 505.1 544.4 476.5 509.1 476.5Z" fill="#3F3D56"/>
<path d="M1031.1 1065.5H748.1V1067.5H1031.1V1065.5Z" fill="#3F3D56"/>
</g>
</g>
<defs>
<clipPath id="clip0">
<rect width="1920" height="1076" fill="white"/>
</clipPath>
</defs>
</svg>
